<?xml version="1.0" standalone="no"?>
<!DOCTYPE svg PUBLIC "-//W3C//DTD SVG 20010904//EN"
 "http://www.w3.org/TR/2001/REC-SVG-20010904/DTD/svg10.dtd">
<svg version="1.0" xmlns="http://www.w3.org/2000/svg"
 width="1187.000000pt" height="697.000000pt" viewBox="0 0 1187.000000 697.000000"
 preserveAspectRatio="xMidYMid meet">

<g transform="translate(0.000000,697.000000) scale(0.100000,-0.100000)"
fill="#000000" stroke="none">
<path d="M2190 4775 c-222 -129 -410 -242 -417 -251 -10 -14 -13 -123 -13
-485 0 -430 1 -468 18 -487 27 -32 800 -472 829 -472 23 0 734 401 811 457
l32 24 0 477 c0 262 -4 482 -8 489 -9 14 -820 483 -836 483 -6 0 -193 -106
-416 -235z m662 14 c134 -78 268 -155 298 -172 30 -17 93 -54 140 -81 l85 -51
0 -89 0 -90 -45 -27 c-68 -41 -70 -40 -70 49 0 42 -4 82 -8 89 -14 23 -619
363 -645 363 -30 0 -611 -329 -639 -362 -14 -16 -18 -38 -18 -99 l0 -78 -55
32 -55 31 0 92 0 91 383 222 c210 121 383 221 384 221 1 0 111 -64 245 -141z
m33 -238 c149 -85 278 -161 288 -169 12 -11 17 -30 17 -74 0 -32 -4 -58 -10
-58 -5 0 -126 67 -269 150 -142 82 -270 155 -284 161 -24 11 -48 -1 -305 -150
-153 -88 -282 -161 -286 -161 -3 0 -6 29 -6 64 l0 64 288 166 c158 91 289 164
292 163 3 -1 127 -71 275 -156z m-7 -216 c144 -82 260 -154 258 -160 -1 -5
-121 -78 -265 -161 l-263 -152 -265 153 c-145 84 -265 156 -266 161 -2 8 524
315 534 311 3 -1 123 -69 267 -152z m-642 -343 c193 -111 361 -202 373 -202
12 0 181 92 374 203 194 112 362 209 375 216 l22 12 0 -176 c0 -119 -3 -175
-11 -175 -6 0 -38 16 -70 35 -33 19 -67 35 -74 35 -8 0 -148 -77 -311 -172
-164 -94 -302 -171 -308 -171 -6 0 -144 77 -307 172 -163 94 -303 171 -311
171 -7 0 -44 -18 -81 -39 l-67 -40 0 181 0 180 23 -14 c12 -8 180 -106 373
-216z m-266 -335 c8 -8 154 -94 323 -192 281 -162 311 -176 333 -166 45 20
599 343 614 357 10 10 17 42 20 99 l5 85 55 -33 55 -33 0 -89 0 -89 -384 -223
-385 -223 -30 18 c-17 10 -190 110 -383 221 l-353 204 0 92 0 93 53 30 52 30
5 -84 c3 -56 10 -88 20 -97z m553 -103 c32 -19 69 -34 83 -34 14 0 143 68 293
155 148 85 271 155 275 155 3 0 6 -29 6 -64 l0 -64 -287 -166 -286 -166 -289
166 -288 167 0 68 0 68 218 -126 c119 -69 243 -140 275 -159z"/>
<path d="M6072 4764 c-29 -20 -30 -76 -2 -104 45 -45 130 -13 130 50 0 60 -74
92 -128 54z"/>
<path d="M7020 4773 c-23 -9 -30 -24 -30 -65 0 -29 6 -41 25 -54 27 -18 89
-14 109 6 18 18 11 92 -10 107 -18 13 -66 16 -94 6z"/>
<path d="M3693 4750 c-12 -5 -26 -18 -32 -29 -7 -13 -11 -142 -11 -374 0 -343
1 -355 21 -381 l20 -26 227 0 c125 0 232 4 238 8 39 25 36 90 -5 111 -12 7
-88 11 -185 11 l-166 0 0 110 0 110 143 0 c165 0 187 8 187 65 0 57 -22 65
-187 65 l-143 0 0 100 0 100 154 0 c167 0 212 9 226 46 13 33 -4 72 -35 84
-32 12 -422 12 -452 0z"/>
<path d="M4370 4749 c-13 -6 -28 -15 -32 -22 -14 -23 -8 -64 13 -83 19 -17 41
-19 200 -22 98 -2 179 -5 179 -7 0 -3 -101 -135 -225 -294 -237 -304 -246
-321 -203 -361 21 -19 34 -20 309 -20 284 0 289 0 309 22 25 28 25 48 -1 82
l-20 26 -200 0 c-109 0 -199 3 -199 6 0 3 85 114 188 247 104 133 205 264 225
290 45 59 48 97 11 126 -25 20 -38 21 -278 20 -140 0 -262 -5 -276 -10z"/>
<path d="M5458 4748 c-46 -16 -50 -50 -46 -424 3 -320 4 -343 22 -363 18 -20
28 -21 242 -21 185 0 225 3 238 15 26 27 29 56 8 84 l-19 26 -172 3 -171 2 0
314 c0 173 -3 322 -6 331 -5 13 -56 47 -66 44 -2 0 -15 -5 -30 -11z"/>
<path d="M7571 4568 c-47 -8 -80 -26 -123 -66 -21 -19 -28 -22 -28 -10 0 8 -9
27 -21 42 -25 32 -70 35 -99 6 -19 -19 -20 -33 -20 -290 0 -257 1 -271 20
-290 38 -38 103 -19 115 33 3 12 6 102 7 199 l3 177 29 30 c54 56 152 63 198
14 22 -24 23 -33 28 -228 4 -181 7 -205 24 -224 24 -27 77 -28 100 -2 16 18
17 42 14 248 -3 213 -5 231 -25 270 -13 23 -36 51 -53 63 -37 26 -110 38 -169
28z"/>
<path d="M8189 4569 c-96 -14 -169 -73 -215 -174 -24 -51 -28 -73 -28 -145 0
-72 5 -95 28 -148 50 -108 146 -174 256 -174 62 0 129 24 167 61 30 28 33 27
33 -15 0 -120 -117 -175 -265 -124 -91 31 -126 26 -143 -20 -22 -58 19 -92
142 -116 199 -39 364 41 396 193 7 30 10 164 8 342 -3 279 -4 293 -23 307 -11
8 -36 14 -55 12 -27 -2 -38 -10 -50 -33 -8 -16 -16 -32 -17 -34 -1 -1 -17 8
-35 22 -57 42 -122 57 -199 46z m151 -144 c107 -55 122 -257 25 -333 -59 -47
-154 -49 -214 -4 -88 65 -94 242 -11 317 47 43 137 52 200 20z"/>
<path d="M6074 4539 c-18 -20 -19 -40 -19 -289 0 -249 1 -269 19 -289 24 -26
77 -28 99 -3 15 16 17 52 17 294 0 254 -1 276 -18 291 -26 24 -75 21 -98 -4z"/>
<path d="M6320 4540 c-11 -11 -20 -29 -20 -40 0 -28 218 -510 243 -537 25 -28
77 -31 99 -5 8 9 68 133 132 275 121 267 128 294 86 317 -29 15 -65 12 -82 -7
-9 -10 -51 -100 -94 -200 -44 -101 -82 -183 -85 -183 -3 0 -41 82 -84 182 -44
101 -88 191 -97 200 -24 24 -73 23 -98 -2z"/>
<path d="M7011 4534 c-20 -25 -21 -39 -21 -284 0 -245 1 -259 21 -284 25 -32
70 -35 99 -6 19 19 20 33 20 290 0 257 -1 271 -20 290 -29 29 -74 26 -99 -6z"/>
<path d="M4015 3406 c-55 -24 -73 -112 -35 -173 51 -84 164 -35 163 70 -1 56
-15 82 -53 102 -35 18 -37 18 -75 1z m78 -31 c48 -48 17 -165 -43 -165 -6 0
-22 11 -35 25 -30 29 -34 97 -9 133 18 26 65 30 87 7z"/>
<path d="M5305 3406 c-55 -24 -73 -112 -35 -173 51 -84 164 -35 163 70 -1 56
-15 82 -53 102 -35 18 -37 18 -75 1z m78 -31 c48 -48 17 -165 -43 -165 -6 0
-22 11 -35 25 -30 29 -34 97 -9 133 18 26 65 30 87 7z"/>
<path d="M6240 3413 c-63 -20 -89 -68 -76 -138 20 -103 149 -114 176 -15 6 22
8 56 4 74 -9 52 -63 93 -104 79z m66 -55 c21 -41 13 -106 -16 -130 -30 -24
-46 -23 -75 7 -19 18 -25 35 -25 67 0 59 22 88 65 88 29 0 37 -5 51 -32z"/>
<path d="M8082 3405 c-66 -29 -79 -130 -24 -187 28 -30 64 -36 107 -16 22 10
25 17 25 60 l0 48 -35 0 c-24 0 -35 -5 -35 -15 0 -8 9 -15 20 -15 15 0 20 -7
20 -29 0 -36 -11 -44 -50 -36 -57 12 -79 99 -38 150 19 24 26 27 65 22 45 -5
56 5 24 23 -25 13 -39 12 -79 -5z"/>
<path d="M8923 3405 c-41 -17 -53 -42 -53 -105 0 -44 5 -56 29 -81 20 -20 39
-29 61 -29 22 0 41 9 61 29 24 25 29 37 29 81 0 62 -11 85 -50 105 -35 18 -36
18 -77 0z m83 -40 c25 -38 20 -103 -9 -133 -21 -21 -29 -23 -53 -15 -51 17
-66 110 -26 156 23 26 68 22 88 -8z"/>
<path d="M3750 3299 c0 -84 3 -110 13 -107 7 3 13 26 15 56 l3 52 50 0 49 0 0
-55 c0 -42 3 -55 15 -55 12 0 15 19 15 110 0 91 -3 110 -15 110 -11 0 -15 -12
-15 -45 l0 -45 -50 0 -50 0 0 45 c0 33 -4 45 -15 45 -12 0 -15 -19 -15 -111z"/>
<path d="M4200 3300 c0 -67 4 -110 10 -110 6 0 10 36 11 88 0 93 2 93 40 -11
11 -31 24 -55 28 -52 5 2 20 38 36 80 15 41 28 75 29 75 0 0 1 -39 1 -87 0
-60 4 -87 13 -90 9 -4 12 22 12 106 0 101 -2 111 -18 111 -13 0 -22 -12 -31
-39 -6 -22 -19 -56 -27 -78 -19 -43 -16 -46 -55 60 -12 33 -26 57 -35 57 -11
0 -14 -21 -14 -110z"/>
<path d="M4440 3300 l0 -110 65 0 c51 0 65 3 65 15 0 11 -12 15 -50 15 l-50 0
0 40 0 40 40 0 c22 0 40 5 40 10 0 6 -18 10 -40 10 -39 0 -40 1 -40 35 l0 35
50 0 c28 0 50 5 50 10 0 6 -28 10 -65 10 l-65 0 0 -110z"/>
<path d="M4699 3313 c-17 -54 -34 -104 -37 -110 -2 -7 2 -13 10 -13 9 0 19 15
24 33 9 30 13 32 54 32 41 0 44 -2 52 -32 5 -20 15 -33 24 -33 9 0 14 6 12 13
-3 6 -20 56 -37 110 -26 76 -37 97 -51 97 -14 0 -25 -21 -51 -97z m65 40 c3
-16 8 -38 12 -50 6 -21 3 -23 -26 -23 -29 0 -32 2 -26 23 4 12 9 34 12 50 4
15 10 27 14 27 4 0 10 -12 14 -27z"/>
<path d="M4870 3326 c0 -100 20 -136 73 -136 63 1 86 45 87 163 0 44 -3 57
-15 57 -12 0 -15 -15 -15 -79 0 -94 -19 -129 -62 -118 -33 9 -48 50 -48 133 0
36 -4 64 -10 64 -6 0 -10 -35 -10 -84z"/>
<path d="M5070 3400 c0 -5 14 -10 30 -10 l30 0 0 -100 c0 -82 3 -100 15 -100
12 0 15 18 15 100 l0 100 35 0 c19 0 35 5 35 10 0 6 -33 10 -80 10 -47 0 -80
-4 -80 -10z"/>
<path d="M5490 3300 c0 -67 4 -110 10 -110 6 0 10 36 11 88 l0 87 30 -78 c17
-42 34 -75 38 -72 5 2 20 38 36 80 15 41 28 75 29 75 0 0 -1 -40 -2 -90 -3
-77 -2 -90 12 -90 14 0 16 16 16 110 0 99 -2 110 -18 110 -13 0 -25 -21 -46
-82 l-29 -82 -14 40 c-32 95 -46 124 -59 124 -11 0 -14 -22 -14 -110z"/>
<path d="M5742 3312 c-18 -54 -32 -103 -32 -110 0 -25 19 -10 30 24 11 33 14
35 53 32 37 -3 42 -6 51 -35 5 -18 15 -33 22 -33 19 0 19 0 -22 117 -48 135
-59 136 -102 5z m78 -19 c0 -8 -13 -13 -30 -13 -16 0 -30 1 -30 3 0 2 7 28 16
58 l17 54 13 -45 c8 -25 14 -51 14 -57z"/>
<path d="M5880 3400 c0 -5 16 -10 35 -10 l35 0 0 -101 c0 -76 3 -100 13 -97 8
3 13 35 15 101 l3 97 29 0 c17 0 30 5 30 10 0 6 -33 10 -80 10 -47 0 -80 -4
-80 -10z"/>
<path d="M6080 3300 c0 -91 3 -110 15 -110 12 0 15 19 15 110 0 91 -3 110 -15
110 -12 0 -15 -19 -15 -110z"/>
<path d="M6400 3300 c0 -67 4 -110 10 -110 6 0 10 38 10 93 l0 92 53 -89 c28
-49 58 -91 65 -94 9 -3 12 23 12 107 0 67 -4 111 -10 111 -6 0 -10 -36 -10
-87 l0 -88 -51 88 c-69 119 -79 116 -79 -23z"/>
<path d="M6727 3403 c-13 -23 -68 -205 -64 -210 11 -10 25 7 32 37 6 28 10 30
50 30 40 0 44 -2 50 -30 7 -31 22 -47 33 -36 3 4 -9 54 -28 111 -26 80 -38
105 -51 105 -10 0 -20 -3 -22 -7z m33 -54 c6 -22 14 -47 17 -55 4 -10 -4 -14
-30 -14 l-34 0 16 55 c9 30 17 55 18 55 1 0 7 -18 13 -41z"/>
<path d="M6870 3300 c0 -85 3 -111 13 -107 8 3 12 29 10 91 0 48 1 85 4 82 3
-3 27 -43 53 -88 26 -46 54 -83 61 -83 11 0 15 24 17 108 2 91 0 107 -13 107
-12 0 -15 -16 -15 -87 l0 -88 -48 85 c-26 48 -55 86 -64 88 -16 3 -18 -7 -18
-108z"/>
<path d="M7090 3299 l0 -112 52 6 c62 8 94 35 103 87 8 45 -14 103 -43 119
-12 6 -41 11 -66 11 l-46 0 0 -111z m109 65 c38 -49 21 -125 -32 -144 -16 -5
-34 -10 -38 -10 -5 0 -9 41 -9 90 l0 90 29 0 c20 0 36 -9 50 -26z"/>
<path d="M7370 3300 c0 -67 4 -110 10 -110 6 0 10 43 10 110 0 67 -4 110 -10
110 -6 0 -10 -43 -10 -110z"/>
<path d="M7460 3300 c0 -67 4 -110 10 -110 6 0 10 37 10 92 l0 93 52 -93 c29
-50 58 -92 65 -92 10 0 13 28 13 110 0 67 -4 110 -10 110 -6 0 -10 -38 -10
-92 l0 -93 -52 93 c-28 50 -57 92 -65 92 -10 0 -13 -25 -13 -110z"/>
<path d="M7650 3400 c0 -5 16 -10 35 -10 l35 0 0 -101 c0 -76 3 -100 13 -97 8
3 13 35 15 101 l3 97 29 0 c17 0 30 5 30 10 0 6 -33 10 -80 10 -47 0 -80 -4
-80 -10z"/>
<path d="M7860 3300 l0 -111 63 3 c76 4 82 22 9 26 l-53 3 3 37 c3 36 4 37 46
40 56 4 54 22 -3 22 -45 0 -45 0 -45 35 l0 35 50 0 c28 0 50 5 50 10 0 6 -27
10 -60 10 l-60 0 0 -110z"/>
<path d="M8240 3300 c0 -91 3 -110 15 -110 11 0 15 12 15 50 0 43 3 50 19 50
13 0 29 -17 48 -50 15 -27 34 -50 41 -50 17 0 15 7 -13 56 -25 43 -25 43 -5
54 28 15 36 55 16 85 -15 22 -24 25 -76 25 l-60 0 0 -110z m118 62 c5 -33 -15
-52 -54 -52 -33 0 -34 1 -34 41 l0 40 43 -3 c35 -3 43 -7 45 -26z"/>
<path d="M8446 3308 c-40 -113 -41 -118 -25 -118 5 0 17 16 25 35 13 32 18 35
53 35 36 0 40 -3 51 -35 11 -34 30 -48 30 -23 0 7 -14 56 -32 110 -43 130 -54
130 -102 -4z m78 0 c6 -26 4 -28 -27 -28 l-34 0 16 55 c16 55 16 55 27 28 6
-15 14 -40 18 -55z"/>
<path d="M8590 3400 c0 -5 14 -10 30 -10 l30 0 0 -100 c0 -82 3 -100 15 -100
12 0 15 18 15 100 l0 100 35 0 c19 0 35 5 35 10 0 6 -33 10 -80 10 -47 0 -80
-4 -80 -10z"/>
<path d="M8790 3299 c0 -84 3 -110 13 -107 8 3 13 37 15 111 2 91 0 107 -13
107 -13 0 -15 -18 -15 -111z"/>
<path d="M9100 3300 c0 -90 3 -110 15 -110 11 0 15 19 17 86 l3 87 48 -87 c67
-118 77 -114 77 24 0 96 -2 110 -16 110 -15 0 -16 -11 -11 -92 l7 -93 -53 92
c-73 130 -87 128 -87 -17z"/>
<path d="M5372 1309 c-162 -81 -117 -332 63 -347 70 -6 116 11 159 58 82 91
52 241 -58 291 -54 25 -111 24 -164 -2z"/>
</g>
</svg>
